<svg xmlns="http://www.w3.org/2000/svg" width="512" height="512" viewBox="0 0 512 512">
<g>
<path d="M 117.02 192.43 C116.06,194.98 115.98,195.00 104.52,195.00 C97.51,195.00 93.00,194.61 93.00,194.00 C93.00,193.45 91.88,193.00 90.50,193.00 L 88.00 193.00 L 88.00 123.37 C88.00,74.08 88.33,52.62 89.14,49.92 C90.71,44.70 95.15,39.59 100.31,37.09 C103.90,35.35 106.52,35.00 115.76,35.00 C122.17,35.00 127.15,35.43 127.51,36.01 C127.85,36.57 126.80,38.14 125.18,39.50 C123.55,40.87 121.28,44.01 120.11,46.48 C118.03,50.92 118.00,51.82 118.00,120.42 C118.00,163.13 117.62,190.86 117.02,192.43 ZM 355.79 0.00 L 384.60 0.00 L 388.69 2.65 C395.92,7.34 396.06,8.11 395.97,43.06 C395.93,60.05 395.54,74.17 395.11,74.43 C394.68,74.70 387.51,68.04 379.17,59.63 L 364.00 44.35 L 364.00 28.24 C364.00,19.38 363.58,11.03 363.07,9.68 C362.55,8.33 360.71,5.60 358.96,3.61 L 355.79 0.00 Z" fill="rgb(40,166,252)"/>
<path d="M 124.08 40.58 C124.46,40.16 124.84,39.79 125.18,39.50 C126.80,38.14 127.85,36.57 127.51,36.01 C127.15,35.43 122.17,35.00 115.76,35.00 C106.52,35.00 103.90,35.35 100.31,37.09 C95.15,39.59 90.71,44.70 89.14,49.92 C88.33,52.62 88.00,74.08 88.00,123.37 L 88.00 193.00 L 90.50 193.00 C91.88,193.00 93.00,193.45 93.00,194.00 C93.00,194.49 95.89,194.84 100.65,194.95 C91.13,194.90 88.17,194.55 87.21,193.46 C86.17,192.28 85.97,177.93 86.21,120.75 C86.48,53.50 86.60,49.30 88.36,46.00 C93.73,35.91 101.00,32.49 115.52,33.23 C120.62,33.48 125.52,33.29 126.41,32.79 C127.55,32.15 128.78,32.47 130.51,33.83 L 133.00 35.78 L 129.11 37.34 C127.47,38.00 125.47,39.31 124.08,40.58 ZM 379.17 59.63 C380.49,60.97 381.79,62.26 383.03,63.49 C381.59,62.08 380.09,60.59 378.54,59.04 L 362.72 43.20 L 362.35 27.50 C362.15,18.87 361.65,11.24 361.24,10.55 C360.83,9.86 358.64,7.20 356.37,4.65 L 352.25 0.00 L 355.79 0.00 L 358.96 3.61 C360.71,5.60 362.55,8.33 363.07,9.68 C363.58,11.03 364.00,19.38 364.00,28.24 L 364.00 44.35 ZM 118.01 89.67 C118.07,54.13 118.35,50.50 119.77,47.24 C118.36,51.99 118.07,61.49 118.01,89.67 ZM 116.05 195.00 L 109.77 194.98 C116.03,194.91 116.23,194.51 117.02,192.44 L 116.05 195.00 ZM 395.12 74.42 C395.52,74.01 395.88,61.65 395.96,46.21 C395.88,61.76 395.52,74.18 395.13,74.42 C395.13,74.42 395.12,74.42 395.12,74.42 Z" fill="rgb(79,180,252)"/>
<path d="M 382.79 63.25 C380.11,60.67 377.14,57.78 374.05,54.70 L 353.50 34.33 L 243.00 34.95 C162.10,35.40 137.98,35.38 129.41,37.22 L 133.00 35.78 L 130.51 33.83 C128.78,32.47 127.55,32.15 126.41,32.79 C125.52,33.29 120.62,33.48 115.52,33.23 C101.00,32.49 93.73,35.91 88.36,46.00 C86.60,49.30 86.48,53.50 86.21,120.75 C85.97,177.93 86.17,192.28 87.21,193.46 C87.92,194.26 89.71,194.66 94.42,194.84 C89.32,194.72 83.73,194.54 79.16,194.34 L 64.00 193.69 L 64.00 102.59 C64.01,13.18 64.04,11.44 66.01,8.21 C67.12,6.40 69.59,3.99 71.51,2.86 C73.43,1.73 75.00,0.62 75.00,0.40 C75.00,0.18 58.12,0.00 37.50,0.00 L 352.25 0.00 L 356.37 4.65 C358.64,7.20 360.83,9.86 361.24,10.55 C361.65,11.24 362.15,18.87 362.35,27.50 L 362.72 43.20 L 378.54 59.04 C380.00,60.51 381.43,61.92 382.79,63.25 ZM 395.14 74.42 C395.53,74.06 395.88,61.80 395.96,46.42 L 395.96 46.21 C395.96,45.38 395.97,44.53 395.97,43.68 C395.92,60.31 395.60,74.07 395.24,74.42 C395.23,74.44 395.19,74.44 395.14,74.42 ZM 118.01 89.67 C118.04,76.13 118.12,66.90 118.36,60.44 C118.12,66.96 118.04,76.29 118.01,90.03 ZM 99.80 194.95 C100.07,194.95 100.36,194.95 100.65,194.95 C100.92,194.96 101.19,194.97 101.48,194.97 C100.94,194.97 100.37,194.96 99.80,194.95 ZM 109.77 194.98 L 109.98 194.98 C108.68,195.00 107.10,195.00 105.18,195.00 C106.99,195.00 108.50,195.00 109.77,194.98 Z" fill="rgb(96,182,254)"/>
<path d="M 396.41 168.92 L 393.82 172.00 L 166.37 172.00 L 163.69 169.20 C159.59,164.92 160.17,160.00 165.07,157.46 C167.51,156.20 183.67,156.00 280.80,156.00 L 393.71 156.00 L 396.35 158.45 C399.71,161.56 399.72,164.99 396.41,168.92 ZM 396.31 220.20 L 393.63 223.00 L 181.18 223.00 L 177.54 216.37 C175.53,212.72 174.13,209.11 174.42,208.35 C174.86,207.19 192.23,207.02 284.89,207.24 L 394.83 207.50 L 396.92 209.90 C399.75,213.17 399.53,216.83 396.31,220.20 Z" fill="rgb(131,174,225)"/>
<path d="M 481.00 512.00 L 19.50 512.00 C35.73,512.00 39.00,511.76 39.00,510.57 C39.00,507.80 35.93,505.92 31.80,506.17 C28.59,506.36 27.45,505.93 25.93,503.95 C24.89,502.60 24.03,500.68 24.02,499.68 C24.01,498.69 23.56,497.05 23.02,496.04 C21.47,493.14 21.56,205.67 23.12,203.18 C26.35,198.01 26.79,197.96 71.19,197.98 C93.91,197.99 114.52,197.59 116.99,197.09 C119.67,196.55 122.15,196.55 123.17,197.09 C125.32,198.24 129.31,198.26 130.55,197.13 C131.07,196.65 132.85,195.96 134.50,195.60 C136.16,195.23 136.96,195.31 136.28,195.76 C134.93,196.67 135.15,197.14 149.81,224.50 C154.52,233.30 158.85,241.48 159.43,242.69 C160.32,244.52 161.62,244.98 167.49,245.51 C171.35,245.86 177.70,245.75 181.62,245.27 C188.35,244.44 188.86,244.52 190.80,246.70 L 192.85 249.00 L 296.98 249.00 C366.15,249.00 400.91,248.66 400.50,248.00 C400.13,247.40 401.32,247.00 403.44,247.00 C405.40,247.00 407.00,247.45 407.00,248.00 C407.00,248.61 411.69,249.00 419.06,249.00 C426.84,249.00 430.90,248.65 430.50,248.00 C430.14,247.42 431.16,247.00 432.94,247.00 C434.62,247.00 436.00,247.45 436.00,248.00 C436.00,248.55 437.83,249.00 440.06,249.00 C442.51,249.00 443.87,248.60 443.50,248.00 C443.16,247.44 443.91,246.99 445.19,246.99 C446.46,246.98 448.51,246.70 449.75,246.37 C451.23,245.97 452.00,246.21 452.00,247.06 C452.00,247.77 453.38,249.51 455.08,250.93 C455.65,251.40 456.16,251.81 456.63,252.28 C460.97,256.58 460.97,265.27 460.98,373.04 L 460.98 379.41 C460.99,385.49 460.99,391.27 460.99,396.76 C461.02,491.42 461.02,500.57 456.44,505.18 C455.69,505.94 454.81,506.58 453.78,507.45 C451.70,509.23 450.00,510.99 450.00,511.35 C450.00,511.71 463.95,512.00 481.00,512.00 ZM 25.43 208.66 C26.07,210.33 26.33,210.24 28.15,207.75 C29.26,206.24 30.76,205.00 31.48,205.00 C33.47,205.00 34.21,202.02 32.39,201.32 C30.06,200.43 24.51,206.28 25.43,208.66 ZM 133.00 207.03 C133.00,209.36 133.36,209.47 134.90,207.62 C135.79,206.55 135.70,206.10 134.53,205.65 C133.48,205.25 133.00,205.68 133.00,207.03 ZM 29.00 501.00 C29.00,501.55 29.67,502.00 30.50,502.00 C31.33,502.00 32.00,501.55 32.00,501.00 C32.00,500.45 31.33,500.00 30.50,500.00 C29.67,500.00 29.00,500.45 29.00,501.00 Z" fill="rgb(252,180,64)"/>
<path d="M 395.12 74.42 C395.12,74.42 395.13,74.42 395.13,74.42 C395.13,74.42 395.13,74.42 395.14,74.42 C395.19,74.44 395.23,74.44 395.24,74.42 C395.56,74.10 395.86,62.60 395.95,47.95 C395.94,64.32 396.28,75.61 396.84,77.00 C397.39,78.38 407.10,88.72 418.42,99.99 C429.74,111.26 439.00,121.05 439.00,121.74 C439.00,123.62 374.04,123.46 368.75,121.57 C363.33,119.64 358.56,115.68 356.39,111.31 C354.67,107.85 354.45,104.19 354.00,71.50 L 353.50 35.50 L 243.00 35.50 C193.79,35.50 166.30,35.53 150.65,35.74 C167.32,35.32 195.28,35.22 243.00,34.95 L 353.50 34.33 L 374.05 54.70 C377.14,57.78 380.11,60.67 382.79,63.25 C382.87,63.33 382.95,63.41 383.03,63.49 C389.62,69.98 394.75,74.65 395.11,74.43 C395.11,74.43 395.12,74.43 395.12,74.42 Z" fill="rgb(180,217,252)"/>
<path d="M 396.67 76.24 L 441.50 121.50 L 441.23 183.75 L 440.96 246.00 L 410.00 246.00 L 410.00 125.13 L 407.75 124.36 C406.51,123.93 397.62,123.71 388.00,123.88 C376.77,124.07 369.46,123.78 367.61,123.06 C362.71,121.17 357.56,116.41 355.12,111.54 C352.83,106.94 352.80,106.45 352.77,72.38 C352.74,43.47 352.50,37.64 351.28,36.42 C350.86,36.00 348.98,35.70 343.27,35.50 L 353.50 35.50 L 354.00 71.50 C354.45,104.19 354.67,107.85 356.39,111.31 C358.56,115.68 363.33,119.64 368.75,121.57 C374.04,123.46 439.00,123.62 439.00,121.74 C439.00,121.05 429.74,111.26 418.42,99.99 C407.10,88.72 397.39,78.38 396.84,77.00 C396.78,76.85 396.72,76.60 396.67,76.24 ZM 384.60 0.00 L 512.00 0.00 L 386.50 0.06 L 389.69 2.96 C390.33,3.54 390.90,4.06 391.41,4.57 C390.64,3.93 389.74,3.33 388.69,2.65 Z" fill="rgb(216,235,252)"/>
<path d="M 117.02 192.43 C117.62,190.86 118.00,163.13 118.00,120.42 C118.00,108.32 118.00,98.32 118.01,90.03 C118.04,76.32 118.12,66.99 118.35,60.48 L 118.36 60.44 C118.61,53.46 119.04,49.71 119.77,47.24 C119.87,46.99 119.99,46.74 120.11,46.48 C121.03,44.53 122.64,42.16 124.08,40.58 C125.47,39.31 127.47,38.00 129.11,37.34 L 129.41 37.22 C132.92,36.47 139.05,36.02 150.65,35.74 C166.30,35.53 193.79,35.50 243.00,35.50 L 343.27 35.50 C348.98,35.70 350.86,36.00 351.28,36.42 C352.50,37.64 352.74,43.47 352.77,72.38 C352.80,106.45 352.83,106.94 355.12,111.54 C357.56,116.41 362.71,121.17 367.61,123.06 C369.46,123.78 376.77,124.07 388.00,123.88 C397.62,123.71 406.51,123.93 407.75,124.36 L 410.00 125.13 L 410.00 245.94 L 437.96 246.00 L 440.96 246.00 L 441.23 183.75 L 441.50 121.50 L 418.65 98.43 L 396.67 76.24 C396.67,76.22 396.66,76.20 396.66,76.18 L 395.79 75.31 L 395.90 54.45 L 395.90 53.36 L 395.90 53.35 L 395.90 53.19 L 395.90 53.19 L 395.93 47.40 C395.94,45.79 395.95,44.19 395.97,42.62 L 395.97 43.06 C395.97,43.27 395.97,43.47 395.97,43.68 C395.97,45.13 395.96,46.56 395.95,47.95 C395.94,62.51 396.21,73.06 396.66,76.18 L 419.39 98.93 L 443.00 122.56 L 442.99 182.03 C442.98,214.74 442.70,242.51 442.37,243.75 L 441.76 246.01 L 437.96 246.00 L 410.00 246.00 L 410.00 245.94 L 317.70 245.75 L 193.63 245.50 L 191.57 241.79 C188.21,235.76 184.52,229.03 181.26,223.00 L 393.63 223.00 L 396.31 220.20 C399.53,216.83 399.75,213.17 396.92,209.90 L 394.83 207.50 L 284.89 207.24 C192.23,207.02 174.86,207.19 174.42,208.35 C174.24,208.82 174.70,210.37 175.56,212.35 C173.98,209.35 172.81,207.09 172.30,206.00 C171.14,203.52 168.77,200.15 167.03,198.50 L 163.87 195.50 L 148.68 195.27 C140.33,195.15 125.18,195.04 115.00,195.03 C113.05,195.03 110.89,195.02 108.62,194.99 C109.10,194.99 109.55,194.99 109.98,194.98 L 109.98 194.98 L 116.05 195.00 L 117.02 192.44 ZM 396.41 168.92 C399.72,164.99 399.71,161.56 396.35,158.45 L 393.71 156.00 L 280.80 156.00 C183.67,156.00 167.51,156.20 165.07,157.46 C160.17,160.00 159.59,164.92 163.69,169.20 L 166.37 172.00 L 393.82 172.00 ZM 395.97 42.62 C395.98,40.60 395.98,38.69 395.98,36.90 C396.01,12.49 395.63,8.02 391.42,4.57 C390.90,4.06 390.33,3.54 389.69,2.96 L 386.50 0.06 L 433.13 0.04 C408.77,0.14 391.00,0.43 391.00,0.78 C391.00,1.62 393.97,6.18 395.04,7.00 C397.18,8.63 398.02,12.22 397.08,15.75 C396.59,17.60 396.12,29.20 395.97,42.62 ZM 35.00 0.00 L 37.50 0.00 C58.12,0.00 75.00,0.18 75.00,0.40 C75.00,0.62 73.43,1.73 71.51,2.86 C69.59,3.99 67.12,6.40 66.01,8.21 C65.56,8.95 65.22,9.60 64.95,11.23 C65.09,10.11 65.26,9.46 65.46,9.08 C66.26,7.52 66.71,6.04 66.45,5.79 C66.20,5.53 66.89,4.50 67.99,3.51 C69.10,2.51 70.00,1.31 70.00,0.85 C70.00,0.38 54.25,0.00 35.00,0.00 ZM 133.01 196.00 C131.89,196.36 130.91,196.79 130.55,197.13 C130.08,197.56 129.21,197.82 128.20,197.92 C129.30,197.81 130.19,197.51 130.50,197.00 C130.84,196.45 131.95,196.00 132.96,196.00 C132.98,196.00 132.99,196.00 133.01,196.00 ZM 68.00 193.86 L 64.00 193.70 L 64.00 102.80 C64.00,95.48 64.00,88.73 64.01,82.51 C64.00,88.66 64.00,95.34 64.00,102.59 L 64.00 193.69 ZM 159.44 242.69 C159.79,243.41 160.20,243.93 160.94,244.31 C160.20,243.93 159.78,243.41 159.43,242.69 C159.19,242.18 158.26,240.40 156.92,237.86 C158.25,240.38 159.18,242.16 159.44,242.69 ZM 127.12 197.97 C125.72,197.95 124.23,197.66 123.17,197.09 C124.23,197.66 125.74,197.95 127.12,197.97 Z" fill="rgb(232,245,254)"/>
<path d="M 99.80 194.95 C100.37,194.96 100.94,194.97 101.48,194.97 C102.43,194.99 103.45,195.00 104.52,195.00 L 105.09 195.00 L 105.18 195.00 C106.47,195.00 107.61,195.00 108.62,194.99 L 108.62 194.99 C110.89,195.02 113.05,195.03 115.00,195.03 C125.18,195.04 140.33,195.15 148.68,195.27 L 163.87 195.50 L 149.18 195.32 C122.26,194.98 115.57,195.05 105.26,195.83 C99.63,196.25 80.28,196.35 62.26,196.05 C32.84,195.56 31.23,195.45 46.50,195.00 L 63.50 194.50 L 64.00 102.50 L 64.00 193.70 L 68.00 193.86 L 79.16 194.34 C83.73,194.54 89.32,194.72 94.42,194.84 C95.91,194.90 97.68,194.93 99.80,194.95 ZM 37.19 511.53 C34.84,511.90 29.76,512.00 19.50,512.00 L 15.50 512.00 C25.17,512.00 31.00,511.62 31.00,511.00 C31.00,510.45 30.55,510.00 30.00,510.00 C29.45,510.00 29.00,509.55 29.00,509.00 C29.00,507.07 34.88,507.91 36.00,510.00 C36.37,510.69 36.79,511.21 37.19,511.53 ZM 66.21 7.37 C66.05,7.83 65.83,8.35 65.56,8.88 C65.61,8.64 65.66,8.47 65.71,8.38 C65.91,8.04 66.08,7.69 66.21,7.37 Z" fill="rgb(243,181,90)"/>
<path d="M 133.01 196.00 C132.99,196.00 132.98,196.00 132.96,196.00 C131.95,196.00 130.84,196.45 130.50,197.00 C130.19,197.50 129.30,197.81 128.20,197.92 L 128.20 197.92 C127.80,197.96 127.37,197.98 126.94,197.96 C125.59,197.92 124.18,197.63 123.17,197.09 L 123.17 197.09 C122.15,196.55 119.67,196.55 116.99,197.09 C114.52,197.59 93.91,197.99 71.19,197.98 C26.79,197.96 26.35,198.01 23.12,203.18 C21.56,205.67 21.47,493.14 23.02,496.04 C23.56,497.05 24.01,498.69 24.02,499.68 C24.03,500.68 24.89,502.60 25.93,503.95 C27.45,505.93 28.59,506.36 31.80,506.17 C35.93,505.92 39.00,507.80 39.00,510.57 C39.00,511.01 38.56,511.32 37.19,511.53 C36.79,511.21 36.37,510.69 36.00,510.00 C34.88,507.91 29.00,507.07 29.00,509.00 C29.00,509.20 29.06,509.38 29.16,509.53 C28.34,508.64 27.30,507.55 26.18,506.39 C23.01,503.09 20.95,499.88 20.15,496.94 C19.21,493.52 19.00,459.43 19.22,348.82 C19.50,205.49 19.50,205.14 21.56,202.38 C25.65,196.91 27.15,195.80 38.82,195.26 C33.41,195.52 39.55,195.67 62.26,196.05 C80.28,196.35 99.63,196.25 105.26,195.83 C114.24,195.16 120.47,195.01 139.68,195.20 C137.48,195.39 136.29,195.73 135.80,196.28 C135.89,196.04 136.06,195.91 136.28,195.76 C136.96,195.31 136.16,195.23 134.50,195.60 C134.00,195.71 133.49,195.85 133.01,196.00 ZM 410.00 245.94 L 410.00 246.00 L 437.96 246.00 L 441.76 246.01 L 442.37 243.75 C442.42,243.56 442.47,242.70 442.52,241.26 L 442.50 246.00 L 447.25 246.00 C448.53,246.00 449.59,246.08 450.38,246.23 C450.18,246.26 449.98,246.31 449.75,246.37 C448.51,246.70 446.46,246.98 445.19,246.99 C443.91,246.99 443.16,247.44 443.50,248.00 C443.87,248.60 442.51,249.00 440.06,249.00 C437.83,249.00 436.00,248.55 436.00,248.00 C436.00,247.45 434.62,247.00 432.94,247.00 C431.16,247.00 430.14,247.42 430.50,248.00 C430.90,248.65 426.84,249.00 419.06,249.00 C411.69,249.00 407.00,248.61 407.00,248.00 C407.00,247.45 405.40,247.00 403.44,247.00 C401.32,247.00 400.13,247.40 400.50,248.00 C400.91,248.66 366.15,249.00 296.98,249.00 L 192.85 249.00 L 190.80 246.70 C188.86,244.52 188.35,244.44 181.62,245.27 C177.74,245.74 171.48,245.85 167.61,245.52 C170.35,245.56 174.04,245.50 177.50,245.35 C192.47,244.70 192.56,244.17 181.26,223.23 C180.68,222.15 180.09,221.05 179.51,219.95 L 181.18 223.00 L 181.26 223.00 C184.52,229.03 188.21,235.76 191.57,241.79 L 193.63 245.50 L 317.70 245.75 ZM 25.43 208.66 C24.51,206.28 30.06,200.43 32.39,201.32 C34.21,202.02 33.47,205.00 31.48,205.00 C30.76,205.00 29.26,206.24 28.15,207.75 C26.33,210.24 26.07,210.33 25.43,208.66 ZM 133.00 207.03 C133.00,205.68 133.48,205.25 134.53,205.65 C135.70,206.10 135.79,206.55 134.90,207.62 C133.36,209.47 133.00,209.36 133.00,207.03 ZM 29.00 501.00 C29.00,500.45 29.67,500.00 30.50,500.00 C31.33,500.00 32.00,500.45 32.00,501.00 C32.00,501.55 31.33,502.00 30.50,502.00 C29.67,502.00 29.00,501.55 29.00,501.00 ZM 166.61 198.10 C164.67,196.29 163.71,195.73 159.28,195.44 L 163.87 195.50 ZM 29.39 509.79 C29.56,509.92 29.77,510.00 30.00,510.00 C30.55,510.00 31.00,510.45 31.00,511.00 C31.00,511.09 30.89,511.17 30.68,511.24 C30.40,510.91 29.95,510.41 29.39,509.79 ZM 443.00 136.45 L 443.00 122.56 L 443.06 122.62 ZM 138.60 203.36 C140.76,207.51 143.91,213.47 147.33,219.86 C147.57,220.32 147.82,220.78 148.06,221.24 C143.46,212.64 140.47,207.04 138.60,203.36 ZM 175.88 213.07 C174.22,209.88 172.88,207.26 172.30,206.00 C171.59,204.49 170.44,202.65 169.25,201.07 C170.44,202.65 171.59,204.49 172.30,206.00 C172.81,207.09 173.98,209.35 175.56,212.35 C175.66,212.59 175.77,212.82 175.88,213.07 ZM 46.32 195.00 L 63.50 194.50 L 46.50 195.00 C43.40,195.09 41.00,195.17 39.38,195.24 C41.39,195.15 43.68,195.08 46.32,195.00 ZM 159.82 243.36 C159.96,243.54 160.12,243.71 160.29,243.87 C160.12,243.72 159.96,243.55 159.82,243.36 Z" fill="rgb(247,179,68)"/>
<path d="M 481.00 512.00 C476.29,512.00 471.82,511.98 467.81,511.94 C473.33,511.83 478.09,511.58 478.55,511.19 C479.07,510.74 480.85,509.81 482.50,509.11 C484.93,508.09 485.26,508.09 484.25,509.12 C483.56,509.83 483.00,510.76 483.00,511.20 C483.00,511.64 489.52,512.00 497.50,512.00 L 481.00 512.00 Z" fill="rgb(252,236,197)"/>
<path d="M 460.98 379.41 L 460.98 373.04 C460.97,265.27 460.97,256.58 456.63,252.28 C456.16,251.81 455.65,251.40 455.08,250.93 C453.38,249.51 452.00,247.77 452.00,247.06 C452.00,246.34 451.45,246.06 450.38,246.23 C449.59,246.08 448.53,246.00 447.25,246.00 L 442.50 246.00 L 442.50 245.82 L 461.00 246.16 C478.30,246.48 479.74,246.65 483.23,248.82 C487.54,251.50 490.74,255.62 492.09,260.25 C492.67,262.23 493.03,309.13 493.00,379.83 C493.00,387.54 493.00,394.76 493.00,401.52 C492.99,491.23 492.99,499.23 489.04,503.86 C488.36,504.67 487.55,505.37 486.61,506.38 C485.95,507.09 485.32,507.81 484.78,508.46 C484.86,508.18 484.19,508.40 482.50,509.11 C480.85,509.81 479.07,510.74 478.55,511.19 C478.09,511.58 473.33,511.83 467.81,511.94 C457.31,511.83 450.00,511.61 450.00,511.35 C450.00,510.99 451.70,509.23 453.78,507.45 C454.81,506.58 455.69,505.94 456.44,505.18 C460.98,500.61 461.02,491.57 460.99,399.05 L 460.99 396.76 C460.99,392.87 460.99,388.83 460.99,384.64 C460.98,382.93 460.98,381.18 460.98,379.41 ZM 159.44 242.69 C159.18,242.16 158.25,240.38 156.92,237.86 C155.10,234.42 152.52,229.56 149.81,224.50 C149.20,223.37 148.62,222.28 148.06,221.24 L 148.06 221.23 C147.82,220.78 147.57,220.32 147.33,219.86 C143.91,213.47 140.76,207.51 138.60,203.36 C136.09,198.44 135.57,196.95 135.80,196.28 C136.29,195.73 137.48,195.39 139.68,195.20 C142.54,195.23 145.69,195.27 149.18,195.32 L 159.28 195.44 C163.71,195.73 164.67,196.29 166.61,198.10 L 167.03 198.50 C167.71,199.15 168.49,200.05 169.25,201.07 L 169.26 201.08 C170.44,202.66 171.59,204.50 172.30,206.00 C172.88,207.26 174.22,209.88 175.88,213.07 C176.35,214.11 176.91,215.23 177.54,216.37 L 179.51 219.95 L 179.51 219.95 C180.09,221.05 180.68,222.15 181.26,223.23 C192.56,244.17 192.47,244.70 177.50,245.35 C174.04,245.50 170.35,245.56 167.61,245.52 C167.57,245.51 167.53,245.51 167.49,245.51 C164.19,245.21 162.33,244.93 161.18,244.43 C161.11,244.39 161.03,244.36 160.96,244.32 L 160.94 244.31 C160.69,244.18 160.48,244.04 160.29,243.87 C160.12,243.71 159.96,243.54 159.82,243.36 C159.68,243.16 159.56,242.93 159.44,242.69 ZM 483.00 511.14 C483.16,511.62 489.62,512.00 497.50,512.00 C489.52,512.00 483.00,511.64 483.00,511.20 C483.00,511.18 483.00,511.16 483.00,511.14 ZM 484.26 509.12 C483.63,509.92 483.19,510.58 483.05,510.93 C483.20,510.45 483.68,509.71 484.25,509.12 Z" fill="rgb(253,166,21)"/>
<path d="M 0.00 256.00 L 0.00 0.00 L 35.00 0.00 C54.25,0.00 70.00,0.38 70.00,0.85 C70.00,1.31 69.10,2.51 67.99,3.51 C66.89,4.50 66.20,5.53 66.46,5.79 C66.72,6.05 66.38,7.22 65.71,8.38 C64.80,9.98 64.38,32.93 64.00,102.50 L 63.50 194.50 L 46.32 195.00 C27.60,195.54 26.40,195.90 21.56,202.38 C19.50,205.14 19.50,205.49 19.22,348.82 C19.00,459.43 19.21,493.52 20.15,496.94 C20.95,499.88 23.01,503.09 26.18,506.39 C28.83,509.13 31.00,511.52 31.00,511.69 C31.00,511.86 24.02,512.00 15.50,512.00 L 0.00 512.00 L 0.00 256.00 ZM 483.00 511.13 C483.00,510.64 484.63,508.51 486.61,506.38 C493.39,499.11 492.96,507.75 493.00,379.83 C493.03,309.13 492.67,262.23 492.09,260.25 C490.74,255.62 487.54,251.50 483.23,248.82 C479.74,246.65 478.30,246.48 461.00,246.16 L 442.50 245.82 L 442.78 184.22 L 443.06 122.62 L 419.42 98.96 L 395.79 75.31 L 395.93 47.40 C396.01,32.06 396.53,17.81 397.08,15.75 C398.02,12.22 397.18,8.63 395.04,7.00 C393.97,6.18 391.00,1.62 391.00,0.78 C391.00,0.35 418.23,0.00 451.50,0.00 L 512.00 0.00 L 512.00 256.00 L 512.00 512.00 L 497.50 512.00 C489.52,512.00 483.00,511.61 483.00,511.13 Z" fill="rgb(254,254,254)"/>
</g>
</svg>